<?xml version="1.0" encoding="UTF-8"?>
<svg width="1024px" height="500px" viewBox="0 0 1024 500" version="1.1" xmlns="http://www.w3.org/2000/svg" xmlns:xlink="http://www.w3.org/1999/xlink">
    <!-- Generator: Sketch 53.2 (72643) - https://sketchapp.com -->
    <title>编组</title>
    <desc>Created with Sketch.</desc>
    <defs>
        <linearGradient x1="50%" y1="0%" x2="50%" y2="99.7598184%" id="linearGradient-1">
            <stop stop-color="#18C9FA" offset="0%"></stop>
            <stop stop-color="#186DF1" offset="100%"></stop>
        </linearGradient>
    </defs>
    <g id="Page-1" stroke="none" stroke-width="1" fill="none" fill-rule="evenodd">
        <g id="编组">
            <path d="M250,-4.04133444e-15 L774,4.04133444e-15 C825.506974,-5.42034325e-15 870.453744,10.6087863 907.490781,30.4768319 C944.527818,50.3448775 973.655122,79.4721824 993.523168,116.509219 C1013.39121,153.546256 1024,198.493026 1024,250 C1024,301.506974 1013.39121,346.453744 993.523168,383.490781 C973.655122,420.527818 944.527818,449.655122 907.490781,469.523168 C870.453744,489.391214 825.506974,500 774,500 L250,500 C198.493026,500 153.546256,489.391214 116.509219,469.523168 C79.4721824,449.655122 50.3448775,420.527818 30.4768319,383.490781 C10.6087863,346.453744 3.61356217e-15,301.506974 -2.69422296e-15,250 C-3.61356217e-15,198.493026 10.6087863,153.546256 30.4768319,116.509219 C50.3448775,79.4721824 79.4721824,50.3448775 116.509219,30.4768319 C153.546256,10.6087863 198.493026,5.42034325e-15 250,-4.04133444e-15 Z" id="Path" fill="#000000"></path>
            <rect id="Background" fill="url(#linearGradient-1)" x="0" y="0" width="1024" height="500"></rect>
            <g id="icon_octopus" transform="translate(287.000000, 25.000000)" fill="#FFFFFF" fill-rule="nonzero">
                <path d="M372.017059,358.623496 C348.253903,340.390761 371.230572,287.649586 338.661565,254.999617 C329.163857,244.36029 315.938096,237.804097 301.738789,236.696486 C303.452007,220.346843 308.587067,204.543547 316.80845,190.319168 C325.991247,172.899005 330.897388,153.534564 331.119713,133.832891 C331.119713,95.9867143 310.979086,61.0154048 278.284611,42.0923163 C245.590136,23.1692279 205.308881,23.1692279 172.614405,42.0923163 C139.91993,61.0154048 119.779303,95.9867143 119.779304,133.832891 C120.001629,153.534564 124.907769,172.899005 134.090566,190.319168 C142.311949,204.543547 147.447009,220.346843 149.160227,236.696486 C134.96092,237.804097 121.735159,244.36029 112.237451,254.999617 C79.6684443,287.649586 102.645113,340.390761 78.8819569,358.623496 C61.5651889,371.914384 52.5486723,371.99886 56.8743532,382.558359 C60.1186138,390.54134 79.3454227,400.86149 108.375236,379.123002 C140.031355,355.469725 129.764885,317.103547 147.797918,299.025686 C153.236064,294.123293 160.395967,291.590583 167.698859,291.98602 C162.909713,313.640032 165.114686,332.337384 159.412652,358.919161 C150.873646,398.707352 124.989783,409.182374 142.475084,420.488078 C153.471863,427.527743 181.504523,411.139402 199.017913,373.139286 C210.506247,348.21887 209.81807,334.195856 225.449508,319.201368 C241.080946,334.195856 240.392769,348.232949 251.881104,373.139286 C269.394494,411.153481 297.427153,427.584061 308.423932,420.488078 C325.909233,409.224612 299.997281,398.721431 291.486364,358.919161 C285.78433,332.337384 287.989304,313.640032 283.200157,291.98602 C290.503049,291.590583 297.662952,294.123293 303.101098,299.025686 C321.134131,317.103547 310.867661,355.469725 342.523781,379.123002 C371.567638,400.833331 390.766358,390.54134 394.024663,382.558359 C398.350344,371.99886 389.347872,371.914384 372.017059,358.623496 L372.017059,358.623496 Z" id="Path"></path>
                <path d="M372.839386,322.906028 C372.685051,317.469725 372.278166,312.654714 371.716946,308.20683 C381.531772,315.488485 395.049766,314.95486 404.267708,306.921886 C409.11143,301.989878 411.310203,295.018742 410.179676,288.1782 C409.049148,281.337658 404.726562,275.458135 398.557294,272.369593 C396.54879,271.439794 395.025574,269.69735 394.36508,267.574015 C393.704587,265.450681 393.968621,263.14515 395.09176,261.228703 C398.531424,257.077412 404.516127,256.178821 409.010017,259.138904 C419.765696,264.399674 427.690073,274.140169 430.691994,285.789983 C433.693915,297.439796 431.471761,309.828409 424.611934,319.686607 C415.613628,333.489202 400.576812,342.103625 384.190061,342.843844 C379.423893,343.369838 375.047038,340.147368 374.102131,335.416584 C373.299134,331.294457 372.876421,327.10646 372.839386,322.906028 L372.839386,322.906028 Z M77.1606139,322.906028 C77.3149494,317.469725 77.7218339,312.654714 78.283054,308.20683 C68.4682282,315.488485 54.9502337,314.95486 45.7322923,306.921886 C40.8885705,301.989878 38.6897965,295.018742 39.8203243,288.1782 C40.9508521,281.337658 45.2734382,275.458135 51.4427061,272.369593 C53.4512105,271.439794 54.9744261,269.69735 55.6349198,267.574015 C56.2954134,265.450681 56.0313786,263.14515 54.9082398,261.228703 C51.468576,257.077412 45.4838731,256.178821 40.989983,259.138904 C30.2343037,264.399674 22.3099271,274.140169 19.3080061,285.789983 C16.3060851,297.439796 18.5282389,309.828409 25.3880662,319.686607 C34.3863719,333.489202 49.4231882,342.103625 65.8099388,342.843844 C70.5761065,343.369838 74.9529624,340.147368 75.8978688,335.416584 C76.7008664,331.294457 77.1235793,327.10646 77.1606139,322.906028 L77.1606139,322.906028 Z" id="Shape"></path>
            </g>
        </g>
    </g>
</svg>