<?xml version="1.0" encoding="UTF-8"?>
<svg width="16px" height="14px" viewBox="0 0 16 14" version="1.1" xmlns="http://www.w3.org/2000/svg" xmlns:xlink="http://www.w3.org/1999/xlink">
    <!-- Generator: Sketch 53.2 (72643) - https://sketchapp.com -->
    <title>icon_octopus</title>
    <desc>Created with Sketch.</desc>
    <g id="Page-1" stroke="none" stroke-width="1" fill="none" fill-rule="evenodd">
        <g id="编组" transform="translate(-287.000000, -26.000000)" fill="#000000" fill-rule="nonzero">
            <g id="icon_octopus" transform="translate(287.000000, 25.000000)">
                <path d="M13.2272732,12.7510576 C12.382361,12.1027826 13.1993092,10.2275408 12.0413001,9.06665303 C11.7036038,8.68836586 11.2333545,8.45525679 10.7284903,8.41587505 C10.7894047,7.83455443 10.9719846,7.27265943 11.2643005,6.76690376 C11.5907999,6.14752018 11.7652404,5.45900673 11.7731453,4.75850278 C11.7731454,3.41286095 11.0570342,2.16943661 9.89456394,1.49661569 C8.73209371,0.823794769 7.29987131,0.823794769 6.13740108,1.49661569 C4.97493085,2.16943661 4.25881966,3.41286095 4.25881968,4.75850278 C4.26672457,5.45900673 4.44116511,6.14752018 4.76766457,6.76690376 C5.0599804,7.27265943 5.24256032,7.83455443 5.30347474,8.41587505 C4.79861049,8.45525679 4.32836121,8.68836586 3.99066492,9.06665303 C2.8326558,10.2275408 3.64960402,12.1027826 2.8046918,12.7510576 C2.1889845,13.2236226 1.86839724,13.2266261 2.02219922,13.602075 C2.13755071,13.8859143 2.82117059,14.252853 3.85334171,13.479929 C4.97889262,12.6389236 4.61386258,11.2747928 5.2550371,10.6320244 C5.44839338,10.4577171 5.70296771,10.3676652 5.96262611,10.3817252 C5.79234534,11.1516456 5.8707444,11.8164403 5.66800542,12.7615702 C5.3643963,14.1762614 4.44408116,14.5487066 5.06578076,14.9506872 C5.45677737,15.2009864 6.45349414,14.6182898 7.07619245,13.2671746 C7.48466655,12.3811154 7.46019806,11.8825193 8.01598251,11.349382 C8.57176696,11.8825193 8.54729847,12.381616 8.95577258,13.2671746 C9.57847088,14.6187904 10.5751877,15.2029888 10.9661843,14.9506872 C11.5878839,14.5502084 10.66657,14.176762 10.3639596,12.7615702 C10.1612206,11.8164403 10.2396197,11.1516456 10.0693389,10.3817252 C10.3289973,10.3676652 10.5835716,10.4577171 10.7769279,10.6320244 C11.4181024,11.2747928 11.0530724,12.6389236 12.1786233,13.479929 C13.2112938,14.2518518 13.8939149,13.8859143 14.0097658,13.602075 C14.1635678,13.2266261 13.8434799,13.2236226 13.2272732,12.7510576 L13.2272732,12.7510576 Z" id="Path"></path>
                <path d="M13.2565115,11.4811032 C13.251024,11.2878125 13.236557,11.1166121 13.2166025,10.9584651 C13.5655741,11.2173683 14.0462139,11.198395 14.3739629,10.9127782 C14.5461842,10.7374179 14.6243628,10.4895553 14.5841662,10.246336 C14.5439697,10.0031167 14.3902778,9.79406701 14.170926,9.68425221 C14.0995125,9.65119268 14.0453537,9.5892391 14.0218695,9.51374276 C13.9983853,9.43824642 14.0077732,9.35627199 14.047707,9.28813166 C14.1700062,9.14053021 14.3827956,9.10858029 14.5425784,9.21382768 C14.9250025,9.40087731 15.2067581,9.74720602 15.3134931,10.1614216 C15.4202281,10.5756372 15.3412182,11.0161212 15.0973132,11.3666349 C14.7773734,11.8573939 14.2427311,12.1636845 13.6600911,12.1900034 C13.4906273,12.2087053 13.3350058,12.0941287 13.3014091,11.925923 C13.2728581,11.7793585 13.2578283,11.6304519 13.2565115,11.4811032 L13.2565115,11.4811032 Z M2.74348849,11.4811032 C2.74897598,11.2878125 2.76344298,11.1166121 2.78339747,10.9584651 C2.43442589,11.2173683 1.95378609,11.198395 1.62603706,10.9127782 C1.45381584,10.7374179 1.37563721,10.4895553 1.41583375,10.246336 C1.4560303,10.0031167 1.60972225,9.79406701 1.82907399,9.68425221 C1.90048748,9.65119268 1.95464626,9.5892391 1.97813048,9.51374276 C2.0016147,9.43824642 1.99222679,9.35627199 1.95229297,9.28813166 C1.82999381,9.14053021 1.61720438,9.10858029 1.45742162,9.21382768 C1.07499746,9.40087731 0.793241851,9.74720602 0.686506883,10.1614216 C0.579771916,10.5756372 0.658781827,11.0161212 0.9026868,11.3666349 C1.22262656,11.8573939 1.75726891,12.1636845 2.33990894,12.1900034 C2.50937268,12.2087053 2.66499422,12.0941287 2.69859089,11.925923 C2.72714192,11.7793585 2.74217171,11.6304519 2.74348849,11.4811032 L2.74348849,11.4811032 Z" id="Shape"></path>
            </g>
        </g>
    </g>
</svg>